<svg width="38" height="39" viewBox="0 0 38 39" fill="none" xmlns="http://www.w3.org/2000/svg">
<g filter="url(#filter0_d_3_11459)">
<path opacity="0.3" fill-rule="evenodd" clip-rule="evenodd" d="M11.8843 28.3938L9.96833 30.7023C6.21539 27.5875 4 22.9731 4 18C4 13.0339 6.20923 8.42518 9.95328 5.3103L11.872 7.61653C8.8059 10.1673 7 13.9346 7 18C7 22.0711 8.81094 25.843 11.8843 28.3938ZM26.1157 28.3938L28.0317 30.7023C31.7846 27.5875 34 22.9731 34 18C34 13.0339 31.7908 8.42518 28.0467 5.3103L26.128 7.61653C29.1941 10.1673 31 13.9346 31 18C31 22.0711 29.1891 25.843 26.1157 28.3938ZM22.2677 23.7899L24.1763 26.1045C26.5793 24.123 28 21.1761 28 18C28 14.8344 26.5886 11.8961 24.1992 9.91448L22.2841 12.2237C23.9934 13.6413 25 15.7369 25 18C25 20.2707 23.9868 22.3724 22.2677 23.7899ZM13.8237 26.1045L15.7323 23.7899C14.0132 22.3724 13 20.2707 13 18C13 15.7369 14.0066 13.6413 15.7159 12.2237L13.8008 9.91448C11.4114 11.8961 10 14.8344 10 18C10 21.1761 11.4207 24.123 13.8237 26.1045Z" fill="#99EFD0"/>
<path fill-rule="evenodd" clip-rule="evenodd" d="M19 21C20.6569 21 22 19.6569 22 18C22 16.3431 20.6569 15 19 15C17.3431 15 16 16.3431 16 18C16 19.6569 17.3431 21 19 21Z" fill="#99EFD0"/>
</g>
<defs>
<filter id="filter0_d_3_11459" x="-3" y="0" width="44" height="44" filterUnits="userSpaceOnUse" color-interpolation-filters="sRGB">
<feFlood flood-opacity="0" result="BackgroundImageFix"/>
<feColorMatrix in="SourceAlpha" type="matrix" values="0 0 0 0 0 0 0 0 0 0 0 0 0 0 0 0 0 0 127 0" result="hardAlpha"/>
<feOffset dy="4"/>
<feGaussianBlur stdDeviation="2"/>
<feComposite in2="hardAlpha" operator="out"/>
<feColorMatrix type="matrix" values="0 0 0 0 0 0 0 0 0 0 0 0 0 0 0 0 0 0 0.25 0"/>
<feBlend mode="normal" in2="BackgroundImageFix" result="effect1_dropShadow_3_11459"/>
<feBlend mode="normal" in="SourceGraphic" in2="effect1_dropShadow_3_11459" result="shape"/>
</filter>
</defs>
</svg>
