<svg width="241" height="234" viewBox="0 0 241 234" fill="none" xmlns="http://www.w3.org/2000/svg">
<g clip-path="url(#clip0_2_554)" filter="url(#filter0_d_2_554)">
<g filter="url(#filter1_d_2_554)">
<rect x="4.32665" y="0.599365" width="232.404" height="225.253" rx="8.93861" fill="#1D2067"/>
</g>
<path d="M36.9204 31.2752C37.912 31.2752 38.813 31.4993 39.6234 31.9474C40.4434 32.3955 41.087 33.0105 41.5542 33.7923C42.0214 34.5741 42.255 35.4418 42.255 36.3952C42.255 37.3487 42.0214 38.2211 41.5542 39.0125C41.087 39.7943 40.4434 40.414 39.6234 40.8717C38.813 41.3294 37.912 41.5582 36.9204 41.5582C35.9288 41.5582 35.023 41.3294 34.2031 40.8717C33.3926 40.414 32.7538 39.7943 32.2866 39.0125C31.8194 38.2211 31.5858 37.3487 31.5858 36.3952C31.5858 35.4418 31.8194 34.5741 32.2866 33.7923C32.7538 33.0105 33.3926 32.3955 34.2031 31.9474C35.023 31.4993 35.9288 31.2752 36.9204 31.2752ZM36.949 32.9914C36.3388 32.9914 35.7715 33.144 35.2471 33.4491C34.7227 33.7446 34.3079 34.1546 34.0028 34.679C33.6977 35.1939 33.5452 35.766 33.5452 36.3952C33.5452 37.0245 33.6977 37.6014 34.0028 38.1258C34.3175 38.6502 34.7322 39.0649 35.2471 39.37C35.7715 39.6751 36.3388 39.8277 36.949 39.8277C37.5497 39.8277 38.1074 39.6751 38.6223 39.37C39.1372 39.0649 39.5424 38.6502 39.838 38.1258C40.1431 37.6014 40.2956 37.0245 40.2956 36.3952C40.2956 35.766 40.1431 35.1939 39.838 34.679C39.5424 34.1546 39.1372 33.7446 38.6223 33.4491C38.1074 33.144 37.5497 32.9914 36.949 32.9914ZM42.6227 33.778L44.5677 33.7637L46.57 39.5845L48.5293 33.7637H50.4028L47.4853 41.4152H45.5688L42.6227 33.778ZM54.401 33.7065C55.6214 33.7065 56.5367 34.0545 57.1469 34.7505C57.7666 35.4466 58.0765 36.4238 58.0765 37.6824C58.0765 37.9303 58.0718 38.1162 58.0622 38.2402H52.413C52.537 38.7836 52.7896 39.2127 53.171 39.5273C53.5619 39.8324 54.0387 39.985 54.6012 39.985C54.9921 39.985 55.3639 39.9135 55.7167 39.7705C56.079 39.6179 56.3937 39.4034 56.6606 39.1269L57.6618 40.1709C57.2804 40.5904 56.8132 40.9146 56.2602 41.1434C55.7167 41.3723 55.1113 41.4867 54.4439 41.4867C53.662 41.4867 52.9708 41.3246 52.3701 41.0004C51.779 40.6762 51.3213 40.2233 50.9971 39.6417C50.673 39.0506 50.5109 38.3737 50.5109 37.6109C50.5109 36.8481 50.673 36.1712 50.9971 35.58C51.3308 34.9889 51.7933 34.5312 52.3844 34.2071C52.9756 33.8734 53.6477 33.7065 54.401 33.7065ZM56.3746 36.9959C56.3555 36.4334 56.1696 35.9853 55.8168 35.6515C55.4641 35.3178 54.9969 35.151 54.4153 35.151C53.8718 35.151 53.4141 35.3178 53.0423 35.6515C52.68 35.9757 52.4559 36.4238 52.3701 36.9959H56.3746ZM61.5346 35.2368C61.7921 34.741 62.1401 34.3644 62.5787 34.107C63.0268 33.84 63.5464 33.7017 64.1376 33.6922V35.4942C63.3462 35.4466 62.7122 35.6325 62.2354 36.052C61.7682 36.462 61.5346 37.0197 61.5346 37.7253V41.4152H59.6754V33.7637H61.5346V35.2368ZM64.634 33.778L66.579 33.7637L68.5813 39.5845L70.5406 33.7637H72.4142L69.4966 41.4152H67.5802L64.634 33.778ZM73.4884 33.7637H75.3476V41.4152H73.4884V33.7637ZM74.4037 30.4743C74.7088 30.4743 74.9614 30.5792 75.1617 30.7889C75.3619 30.9987 75.462 31.2657 75.462 31.5898C75.462 31.9045 75.3619 32.1667 75.1617 32.3764C74.9614 32.5862 74.7088 32.6911 74.4037 32.6911C74.0986 32.6911 73.8459 32.5862 73.6457 32.3764C73.4454 32.1667 73.3453 31.9045 73.3453 31.5898C73.3453 31.2657 73.4454 30.9987 73.6457 30.7889C73.8459 30.5792 74.0986 30.4743 74.4037 30.4743ZM80.8397 33.7065C82.0601 33.7065 82.9754 34.0545 83.5856 34.7505C84.2054 35.4466 84.5152 36.4238 84.5152 37.6824C84.5152 37.9303 84.5105 38.1162 84.5009 38.2402H78.8517C78.9757 38.7836 79.2284 39.2127 79.6097 39.5273C80.0006 39.8324 80.4774 39.985 81.0399 39.985C81.4308 39.985 81.8027 39.9135 82.1554 39.7705C82.5178 39.6179 82.8324 39.4034 83.0994 39.1269L84.1005 40.1709C83.7191 40.5904 83.2519 40.9146 82.6989 41.1434C82.1554 41.3723 81.55 41.4867 80.8826 41.4867C80.1008 41.4867 79.4095 41.3246 78.8088 41.0004C78.2177 40.6762 77.76 40.2233 77.4359 39.6417C77.1117 39.0506 76.9496 38.3737 76.9496 37.6109C76.9496 36.8481 77.1117 36.1712 77.4359 35.58C77.7696 34.9889 78.232 34.5312 78.8231 34.2071C79.4143 33.8734 80.0865 33.7065 80.8397 33.7065ZM82.8133 36.9959C82.7943 36.4334 82.6083 35.9853 82.2556 35.6515C81.9028 35.3178 81.4356 35.151 80.854 35.151C80.3105 35.151 79.8529 35.3178 79.481 35.6515C79.1187 35.9757 78.8946 36.4238 78.8088 36.9959H82.8133ZM84.676 33.778L86.5925 33.7637L88.466 39.5416L90.2823 33.7637H92.1559L94.0008 39.5416L95.8314 33.7637H97.7049L94.9304 41.4152H93.0283L91.1976 36.0234L89.3813 41.4152H87.4792L84.676 33.778Z" fill="#8476AA"/>
<path d="M155.747 41.4152V35.0342H156.489V40.743H159.304V41.4152H155.747ZM163.224 41.4152L163.079 40.7343H163.045C162.806 41.034 162.567 41.2377 162.329 41.3453C162.093 41.4501 161.798 41.5025 161.443 41.5025C160.968 41.5025 160.596 41.3802 160.325 41.1358C160.058 40.8914 159.924 40.5437 159.924 40.0927C159.924 39.1267 160.696 38.6204 162.241 38.5738L163.053 38.5476V38.2509C163.053 37.8755 162.972 37.5991 162.809 37.4216C162.649 37.2412 162.391 37.151 162.036 37.151C161.638 37.151 161.187 37.2732 160.683 37.5176L160.461 36.9633C160.696 36.8353 160.954 36.7349 161.233 36.6622C161.516 36.5894 161.798 36.553 162.08 36.553C162.65 36.553 163.072 36.6796 163.346 36.9328C163.622 37.1859 163.76 37.5918 163.76 38.1505V41.4152H163.224ZM161.587 40.9045C162.038 40.9045 162.391 40.7808 162.647 40.5335C162.906 40.2862 163.036 39.9399 163.036 39.4948V39.0627L162.311 39.0932C161.735 39.1136 161.319 39.2038 161.063 39.3638C160.81 39.5209 160.683 39.7668 160.683 40.1014C160.683 40.3633 160.762 40.5626 160.919 40.6994C161.079 40.8361 161.302 40.9045 161.587 40.9045ZM168.343 40.1102C168.343 40.5553 168.177 40.8987 167.846 41.1402C167.514 41.3817 167.048 41.5025 166.449 41.5025C165.815 41.5025 165.32 41.4021 164.965 41.2013V40.5292C165.195 40.6455 165.441 40.7372 165.703 40.8041C165.967 40.871 166.222 40.9045 166.466 40.9045C166.845 40.9045 167.136 40.8449 167.339 40.7256C167.543 40.6034 167.645 40.4186 167.645 40.1713C167.645 39.985 167.563 39.8265 167.4 39.6955C167.24 39.5617 166.926 39.4046 166.458 39.2242C166.012 39.0583 165.695 38.9143 165.506 38.7921C165.32 38.6669 165.18 38.5258 165.087 38.3687C164.997 38.2116 164.952 38.0239 164.952 37.8057C164.952 37.4158 165.11 37.1088 165.428 36.8848C165.745 36.6578 166.18 36.5443 166.733 36.5443C167.248 36.5443 167.751 36.6491 168.243 36.8586L167.985 37.4478C167.505 37.2499 167.07 37.151 166.68 37.151C166.337 37.151 166.078 37.2048 165.903 37.3125C165.729 37.4201 165.641 37.5685 165.641 37.7577C165.641 37.8857 165.673 37.9948 165.737 38.085C165.804 38.1752 165.911 38.261 166.056 38.3425C166.202 38.424 166.481 38.5418 166.894 38.696C167.461 38.9026 167.844 39.1107 168.042 39.3202C168.243 39.5297 168.343 39.793 168.343 40.1102ZM171.071 40.9045C171.199 40.9045 171.323 40.8958 171.442 40.8783C171.561 40.858 171.656 40.8376 171.726 40.8172V41.3715C171.647 41.4093 171.531 41.4399 171.376 41.4632C171.225 41.4894 171.088 41.5025 170.966 41.5025C170.041 41.5025 169.578 41.0151 169.578 40.0403V37.1946H168.893V36.8455L169.578 36.5443L169.884 35.523H170.303V36.6316H171.691V37.1946H170.303V40.0098C170.303 40.2978 170.371 40.519 170.508 40.6732C170.645 40.8274 170.832 40.9045 171.071 40.9045ZM176.671 37.5176C177.343 37.5176 177.871 37.6849 178.255 38.0195C178.642 38.3512 178.836 38.8066 178.836 39.3856C178.836 40.0461 178.625 40.5641 178.203 40.9394C177.784 41.3148 177.205 41.5025 176.466 41.5025C175.747 41.5025 175.198 41.3875 174.82 41.1577V40.4593C175.024 40.5903 175.277 40.6936 175.58 40.7692C175.882 40.8419 176.18 40.8783 176.474 40.8783C176.986 40.8783 177.384 40.7576 177.666 40.5161C177.951 40.2746 178.094 39.9254 178.094 39.4686C178.094 38.5782 177.548 38.133 176.457 38.133C176.18 38.133 175.811 38.1752 175.348 38.2596L174.973 38.0195L175.213 35.0342H178.386V35.702H175.833L175.671 37.618C176.006 37.5511 176.339 37.5176 176.671 37.5176ZM188.542 41.4152V38.3032C188.542 37.9221 188.461 37.6369 188.298 37.4478C188.135 37.2557 187.882 37.1597 187.538 37.1597C187.087 37.1597 186.754 37.2892 186.539 37.5482C186.324 37.8071 186.216 38.2058 186.216 38.7441V41.4152H185.491V38.3032C185.491 37.9221 185.41 37.6369 185.247 37.4478C185.084 37.2557 184.83 37.1597 184.483 37.1597C184.029 37.1597 183.696 37.2965 183.484 37.57C183.274 37.8406 183.17 38.2858 183.17 38.9055V41.4152H182.445V36.6316H183.034L183.152 37.2863H183.187C183.324 37.0535 183.516 36.8717 183.763 36.7407C184.013 36.6098 184.293 36.5443 184.601 36.5443C185.349 36.5443 185.838 36.8149 186.068 37.3561H186.102C186.245 37.1059 186.452 36.908 186.722 36.7625C186.993 36.6171 187.301 36.5443 187.648 36.5443C188.189 36.5443 188.593 36.684 188.861 36.9633C189.131 37.2397 189.267 37.6835 189.267 38.2945V41.4152H188.542ZM194.893 39.019C194.893 39.7988 194.696 40.4084 194.303 40.8478C193.911 41.2842 193.368 41.5025 192.676 41.5025C192.248 41.5025 191.868 41.4021 191.536 41.2013C191.205 41.0005 190.949 40.7125 190.768 40.3371C190.588 39.9618 190.498 39.5224 190.498 39.019C190.498 38.2392 190.693 37.6325 191.082 37.199C191.472 36.7625 192.014 36.5443 192.706 36.5443C193.375 36.5443 193.906 36.7669 194.299 37.2121C194.695 37.6573 194.893 38.2596 194.893 39.019ZM191.248 39.019C191.248 39.6301 191.371 40.0956 191.615 40.4157C191.859 40.7357 192.219 40.8958 192.693 40.8958C193.167 40.8958 193.527 40.7372 193.771 40.42C194.018 40.1 194.142 39.633 194.142 39.019C194.142 38.4109 194.018 37.9497 193.771 37.6355C193.527 37.3183 193.164 37.1597 192.684 37.1597C192.21 37.1597 191.852 37.3154 191.611 37.6267C191.369 37.9381 191.248 38.4022 191.248 39.019ZM199.441 41.4152V38.3207C199.441 37.9308 199.352 37.6398 199.174 37.4478C198.997 37.2557 198.719 37.1597 198.341 37.1597C197.84 37.1597 197.474 37.295 197.241 37.5656C197.008 37.8362 196.892 38.2829 196.892 38.9055V41.4152H196.167V36.6316H196.756L196.874 37.2863H196.909C197.058 37.0506 197.266 36.8687 197.533 36.7407C197.801 36.6098 198.099 36.5443 198.428 36.5443C199.004 36.5443 199.438 36.684 199.729 36.9633C200.02 37.2397 200.165 37.6835 200.165 38.2945V41.4152H199.441ZM203.203 40.9045C203.331 40.9045 203.455 40.8958 203.574 40.8783C203.693 40.858 203.788 40.8376 203.858 40.8172V41.3715C203.779 41.4093 203.663 41.4399 203.508 41.4632C203.357 41.4894 203.22 41.5025 203.098 41.5025C202.173 41.5025 201.71 41.0151 201.71 40.0403V37.1946H201.025V36.8455L201.71 36.5443L202.016 35.523H202.435V36.6316H203.823V37.1946H202.435V40.0098C202.435 40.2978 202.503 40.519 202.64 40.6732C202.777 40.8274 202.964 40.9045 203.203 40.9045ZM208.091 41.4152V38.3207C208.091 37.9308 208.002 37.6398 207.825 37.4478C207.647 37.2557 207.37 37.1597 206.991 37.1597C206.488 37.1597 206.12 37.2965 205.887 37.57C205.657 37.8435 205.542 38.2916 205.542 38.9143V41.4152H204.818V34.6239H205.542V36.6796C205.542 36.9269 205.531 37.1321 205.507 37.295H205.551C205.694 37.0652 205.896 36.8848 206.158 36.7538C206.422 36.62 206.724 36.553 207.061 36.553C207.646 36.553 208.084 36.6927 208.375 36.972C208.669 37.2485 208.816 37.6893 208.816 38.2945V41.4152H208.091Z" fill="#8476AA"/>
<g opacity="0.2" clip-path="url(#clip1_2_554)">
<path d="M125.713 193.735L123.548 188.078H123.513C123.554 188.526 123.574 189.059 123.574 189.676V193.735H122.889V187.354H124.006L126.027 192.617H126.062L128.1 187.354H129.209V193.735H128.467V189.623C128.467 189.152 128.487 188.64 128.528 188.087H128.493L126.311 193.735H125.713ZM133.796 193.735L133.652 193.054H133.617C133.378 193.353 133.14 193.557 132.901 193.665C132.666 193.77 132.37 193.822 132.015 193.822C131.541 193.822 131.168 193.7 130.898 193.455C130.63 193.211 130.496 192.863 130.496 192.412C130.496 191.446 131.269 190.94 132.814 190.893L133.626 190.867V190.57C133.626 190.195 133.544 189.919 133.381 189.741C133.221 189.561 132.964 189.47 132.609 189.47C132.21 189.47 131.759 189.593 131.256 189.837L131.033 189.283C131.269 189.155 131.526 189.054 131.806 188.982C132.088 188.909 132.37 188.873 132.652 188.873C133.223 188.873 133.645 188.999 133.918 189.252C134.195 189.505 134.333 189.911 134.333 190.47V193.735H133.796ZM132.159 193.224C132.61 193.224 132.964 193.1 133.22 192.853C133.479 192.606 133.608 192.259 133.608 191.814V191.382L132.884 191.413C132.308 191.433 131.892 191.523 131.635 191.683C131.382 191.84 131.256 192.086 131.256 192.421C131.256 192.683 131.334 192.882 131.491 193.019C131.651 193.156 131.874 193.224 132.159 193.224ZM138.012 188.864C138.225 188.864 138.415 188.881 138.584 188.916L138.483 189.588C138.286 189.545 138.111 189.523 137.96 189.523C137.573 189.523 137.241 189.68 136.965 189.994C136.691 190.308 136.554 190.7 136.554 191.168V193.735H135.83V188.951H136.428L136.511 189.837H136.546C136.723 189.526 136.937 189.286 137.187 189.117C137.437 188.948 137.712 188.864 138.012 188.864Z" fill="white"/>
<path d="M189.643 193.735L187.478 188.078H187.443C187.484 188.526 187.504 189.059 187.504 189.676V193.735H186.819V187.354H187.936L189.957 192.617H189.992L192.03 187.354H193.139V193.735H192.397V189.623C192.397 189.152 192.417 188.64 192.458 188.087H192.423L190.241 193.735H189.643ZM197.726 193.735L197.582 193.054H197.547C197.309 193.353 197.07 193.557 196.831 193.665C196.596 193.77 196.3 193.822 195.945 193.822C195.471 193.822 195.099 193.7 194.828 193.455C194.56 193.211 194.427 192.863 194.427 192.412C194.427 191.446 195.199 190.94 196.744 190.893L197.556 190.867V190.57C197.556 190.195 197.474 189.919 197.312 189.741C197.152 189.561 196.894 189.47 196.539 189.47C196.14 189.47 195.689 189.593 195.186 189.837L194.963 189.283C195.199 189.155 195.457 189.054 195.736 188.982C196.018 188.909 196.3 188.873 196.583 188.873C197.153 188.873 197.575 188.999 197.848 189.252C198.125 189.505 198.263 189.911 198.263 190.47V193.735H197.726ZM196.089 193.224C196.54 193.224 196.894 193.1 197.15 192.853C197.409 192.606 197.539 192.259 197.539 191.814V191.382L196.814 191.413C196.238 191.433 195.822 191.523 195.566 191.683C195.313 191.84 195.186 192.086 195.186 192.421C195.186 192.683 195.265 192.882 195.422 193.019C195.582 193.156 195.804 193.224 196.089 193.224ZM199.001 188.951H199.778L200.825 191.679C201.055 192.302 201.197 192.751 201.253 193.028H201.288C201.325 192.879 201.404 192.626 201.523 192.268C201.646 191.907 202.041 190.802 202.711 188.951H203.487L201.432 194.398C201.228 194.936 200.989 195.317 200.716 195.542C200.445 195.769 200.112 195.882 199.716 195.882C199.495 195.882 199.277 195.857 199.062 195.808V195.227C199.222 195.262 199.401 195.28 199.599 195.28C200.096 195.28 200.451 195 200.664 194.442L200.93 193.761L199.001 188.951Z" fill="white"/>
<path d="M160.035 193.735L159.24 191.705H156.683L155.897 193.735H155.146L157.669 187.327H158.293L160.803 193.735H160.035ZM159.009 191.037L158.267 189.06C158.171 188.81 158.072 188.503 157.97 188.139C157.906 188.419 157.815 188.726 157.695 189.06L156.945 191.037H159.009ZM163.797 193.822C163.486 193.822 163.201 193.765 162.942 193.652C162.686 193.535 162.47 193.358 162.296 193.119H162.243C162.278 193.399 162.296 193.663 162.296 193.914V195.882H161.571V188.951H162.16L162.261 189.606H162.296C162.482 189.344 162.699 189.155 162.946 189.038C163.193 188.922 163.477 188.864 163.797 188.864C164.431 188.864 164.92 189.081 165.264 189.514C165.61 189.948 165.783 190.556 165.783 191.338C165.783 192.124 165.607 192.735 165.255 193.172C164.906 193.605 164.42 193.822 163.797 193.822ZM163.692 189.479C163.203 189.479 162.85 189.614 162.632 189.885C162.413 190.156 162.301 190.586 162.296 191.177V191.338C162.296 192.011 162.408 192.492 162.632 192.783C162.856 193.071 163.215 193.215 163.71 193.215C164.123 193.215 164.446 193.048 164.679 192.713C164.914 192.379 165.032 191.918 165.032 191.33C165.032 190.733 164.914 190.276 164.679 189.959C164.446 189.639 164.117 189.479 163.692 189.479ZM169.235 188.864C169.448 188.864 169.638 188.881 169.807 188.916L169.707 189.588C169.509 189.545 169.334 189.523 169.183 189.523C168.796 189.523 168.464 189.68 168.188 189.994C167.914 190.308 167.777 190.7 167.777 191.168V193.735H167.053V188.951H167.651L167.734 189.837H167.769C167.946 189.526 168.16 189.286 168.41 189.117C168.661 188.948 168.936 188.864 169.235 188.864Z" fill="white"/>
<path d="M92.2419 193.735H91.4999V187.354H95.057V188.013H92.2419V190.348H94.8868V191.007H92.2419V193.735ZM98.0293 193.822C97.3222 193.822 96.7636 193.607 96.3533 193.176C95.9459 192.745 95.7423 192.147 95.7423 191.382C95.7423 190.611 95.9314 189.999 96.3097 189.545C96.6908 189.091 97.2015 188.864 97.8416 188.864C98.441 188.864 98.9153 189.062 99.2645 189.457C99.6136 189.85 99.7882 190.37 99.7882 191.016V191.474H96.493C96.5075 192.035 96.6486 192.462 96.9163 192.753C97.1869 193.044 97.5666 193.189 98.0555 193.189C98.5705 193.189 99.0797 193.081 99.5831 192.866V193.512C99.327 193.623 99.0841 193.701 98.8542 193.748C98.6272 193.797 98.3523 193.822 98.0293 193.822ZM97.8329 189.47C97.4488 189.47 97.1418 189.596 96.912 189.846C96.685 190.096 96.5512 190.442 96.5104 190.885H99.0113C99.0113 190.428 98.9095 190.079 98.7058 189.837C98.5021 189.593 98.2111 189.47 97.8329 189.47ZM103.254 188.873C103.882 188.873 104.37 189.088 104.716 189.518C105.065 189.946 105.24 190.553 105.24 191.338C105.24 192.124 105.063 192.735 104.711 193.172C104.362 193.605 103.876 193.822 103.254 193.822C102.942 193.822 102.657 193.765 102.398 193.652C102.142 193.535 101.927 193.358 101.752 193.119H101.7L101.547 193.735H101.028V186.943H101.752V188.593C101.752 188.963 101.741 189.294 101.717 189.588H101.752C102.09 189.111 102.59 188.873 103.254 188.873ZM103.149 189.479C102.654 189.479 102.298 189.622 102.08 189.907C101.861 190.189 101.752 190.666 101.752 191.338C101.752 192.011 101.864 192.492 102.088 192.783C102.312 193.071 102.672 193.215 103.166 193.215C103.612 193.215 103.943 193.054 104.161 192.731C104.38 192.405 104.489 191.938 104.489 191.33C104.489 190.707 104.38 190.243 104.161 189.937C103.943 189.632 103.606 189.479 103.149 189.479Z" fill="white"/>
<path d="M59.5217 195.415C59.2482 195.415 59.0329 195.376 58.8757 195.297V194.664C59.0823 194.722 59.2977 194.752 59.5217 194.752C59.8098 194.752 60.028 194.664 60.1764 194.49C60.3277 194.315 60.4033 194.063 60.4033 193.735V187.354H61.1453V193.674C61.1453 194.226 61.0056 194.654 60.7263 194.957C60.447 195.262 60.0454 195.415 59.5217 195.415ZM65.6757 193.735L65.5317 193.054H65.4968C65.2582 193.353 65.0196 193.557 64.781 193.665C64.5453 193.77 64.25 193.822 63.895 193.822C63.4207 193.822 63.0483 193.7 62.7777 193.455C62.51 193.211 62.3761 192.863 62.3761 192.412C62.3761 191.446 63.1486 190.94 64.6937 190.893L65.5055 190.867V190.57C65.5055 190.195 65.424 189.919 65.2611 189.741C65.1011 189.561 64.8435 189.47 64.4886 189.47C64.0899 189.47 63.6389 189.593 63.1355 189.837L62.913 189.283C63.1486 189.155 63.4062 189.054 63.6855 188.982C63.9677 188.909 64.25 188.873 64.5322 188.873C65.1025 188.873 65.5244 188.999 65.7979 189.252C66.0743 189.505 66.2126 189.911 66.2126 190.47V193.735H65.6757ZM64.039 193.224C64.49 193.224 64.8435 193.1 65.0996 192.853C65.3586 192.606 65.488 192.259 65.488 191.814V191.382L64.7635 191.413C64.1874 191.433 63.7713 191.523 63.5153 191.683C63.2621 191.84 63.1355 192.086 63.1355 192.421C63.1355 192.683 63.2141 192.882 63.3712 193.019C63.5313 193.156 63.7539 193.224 64.039 193.224ZM70.983 193.735V190.64C70.983 190.25 70.8943 189.959 70.7168 189.767C70.5393 189.575 70.2614 189.479 69.8832 189.479C69.3827 189.479 69.0161 189.614 68.7833 189.885C68.5505 190.156 68.4341 190.602 68.4341 191.225V193.735H67.7096V188.951H68.2988L68.4167 189.606H68.4516C68.6 189.37 68.808 189.188 69.0757 189.06C69.3434 188.929 69.6416 188.864 69.9704 188.864C70.5466 188.864 70.9801 189.003 71.2711 189.283C71.562 189.559 71.7075 190.003 71.7075 190.614V193.735H70.983Z" fill="white"/>
</g>
<g opacity="0.1">
<path d="M50.8074 114.567H211.702" stroke="#EDE9F2" stroke-width="0.44693"/>
<path d="M50.8074 69.8736H211.702" stroke="#EDE9F2" stroke-width="0.44693"/>
<path d="M50.8074 92.22H211.702" stroke="#EDE9F2" stroke-width="0.44693"/>
<path d="M50.8074 136.913H211.702" stroke="#EDE9F2" stroke-width="0.44693"/>
<path d="M50.8074 159.26H211.702" stroke="#EDE9F2" stroke-width="0.44693"/>
<path d="M50.8074 181.606H211.702" stroke="#EDE9F2" stroke-width="0.44693"/>
</g>
<g opacity="0.2" clip-path="url(#clip2_2_554)">
<path d="M38.2812 85.3618C38.8631 85.3618 39.3243 85.4971 39.6647 85.7677C40.0052 86.0383 40.1754 86.4122 40.1754 86.8894C40.1754 87.2037 40.0779 87.4903 39.883 87.7492C39.688 88.0082 39.3767 88.2439 38.9489 88.4563C39.4669 88.7036 39.8349 88.9641 40.0532 89.2376C40.2714 89.5082 40.3805 89.8224 40.3805 90.1803C40.3805 90.7099 40.1957 91.1332 39.8262 91.4504C39.4567 91.7646 38.9504 91.9218 38.3073 91.9218C37.6265 91.9218 37.1027 91.7734 36.7361 91.4766C36.3695 91.1769 36.1862 90.7535 36.1862 90.2065C36.1862 89.4762 36.6314 88.9073 37.5217 88.5C37.1202 88.273 36.8321 88.0286 36.6575 87.7667C36.483 87.5019 36.3957 87.2066 36.3957 86.8807C36.3957 86.4181 36.5659 86.05 36.9063 85.7765C37.2497 85.5 37.708 85.3618 38.2812 85.3618ZM36.902 90.224C36.902 90.5731 37.0227 90.8452 37.2642 91.0401C37.5086 91.2351 37.8505 91.3325 38.2899 91.3325C38.7234 91.3325 39.061 91.2307 39.3025 91.027C39.544 90.8234 39.6647 90.544 39.6647 90.189C39.6647 89.9068 39.5512 89.6566 39.3243 89.4383C39.0973 89.2172 38.7016 89.0033 38.1371 88.7967C37.7036 88.983 37.3893 89.1896 37.1944 89.4165C36.9994 89.6406 36.902 89.9097 36.902 90.224ZM38.2724 85.9511C37.9087 85.9511 37.6236 86.0383 37.417 86.2129C37.2104 86.3875 37.1071 86.6203 37.1071 86.9113C37.1071 87.1789 37.1929 87.4088 37.3646 87.6009C37.5363 87.7929 37.8534 87.9849 38.3161 88.177C38.7322 88.0024 39.026 87.8147 39.1977 87.6139C39.3723 87.4132 39.4596 87.1789 39.4596 86.9113C39.4596 86.6174 39.3534 86.3846 39.141 86.2129C38.9315 86.0383 38.642 85.9511 38.2724 85.9511ZM46.3338 91.8345H45.4609L43.1345 88.74L42.4668 89.3336V91.8345H41.7248V85.4535H42.4668V88.6178L45.3605 85.4535H46.2377L43.6714 88.225L46.3338 91.8345Z" fill="white"/>
<path d="M40.3631 158.874H36.1687V158.25L37.8491 156.561C38.3612 156.043 38.6987 155.673 38.8616 155.452C39.0246 155.231 39.1468 155.016 39.2283 154.806C39.3097 154.597 39.3505 154.371 39.3505 154.13C39.3505 153.789 39.2472 153.52 39.0406 153.322C38.834 153.122 38.5474 153.021 38.1808 153.021C37.916 153.021 37.6643 153.065 37.4257 153.152C37.19 153.24 36.9267 153.398 36.6357 153.628L36.2516 153.135C36.8394 152.646 37.4795 152.402 38.172 152.402C38.7714 152.402 39.2414 152.556 39.5818 152.864C39.9222 153.17 40.0925 153.581 40.0925 154.099C40.0925 154.504 39.979 154.904 39.752 155.3C39.5251 155.695 39.1002 156.196 38.4776 156.801L37.0809 158.167V158.202H40.3631V158.874ZM46.3338 158.874H45.4609L43.1345 155.78L42.4668 156.373V158.874H41.7248V152.493H42.4668V155.657L45.3605 152.493H46.2377L43.6714 155.265L46.3338 158.874Z" fill="white"/>
<path d="M45.8886 178.021C45.8886 179.124 45.714 179.948 45.3648 180.492C45.0186 181.036 44.4876 181.308 43.7718 181.308C43.0851 181.308 42.5628 181.03 42.2049 180.474C41.847 179.916 41.6681 179.098 41.6681 178.021C41.6681 176.91 41.8412 176.085 42.1874 175.547C42.5337 175.008 43.0618 174.739 43.7718 174.739C44.4643 174.739 44.9895 175.02 45.3474 175.582C45.7082 176.143 45.8886 176.956 45.8886 178.021ZM42.4013 178.021C42.4013 178.95 42.5104 179.626 42.7286 180.051C42.9469 180.473 43.2946 180.684 43.7718 180.684C44.2548 180.684 44.6039 180.47 44.8193 180.042C45.0375 179.612 45.1466 178.938 45.1466 178.021C45.1466 177.105 45.0375 176.434 44.8193 176.009C44.6039 175.582 44.2548 175.368 43.7718 175.368C43.2946 175.368 42.9469 175.579 42.7286 176.001C42.5104 176.42 42.4013 177.093 42.4013 178.021Z" fill="white"/>
<path d="M36.2429 111.453C36.2429 110.199 36.4859 109.262 36.9718 108.642C37.4606 108.02 38.1822 107.708 39.1366 107.708C39.4654 107.708 39.7244 107.736 39.9135 107.791V108.415C39.6895 108.343 39.4334 108.306 39.1453 108.306C38.4616 108.306 37.9393 108.52 37.5785 108.948C37.2177 109.373 37.0198 110.042 36.9849 110.956H37.0373C37.3573 110.455 37.8636 110.205 38.5561 110.205C39.1293 110.205 39.5803 110.378 39.9091 110.724C40.2408 111.071 40.4067 111.54 40.4067 112.134C40.4067 112.797 40.2248 113.32 39.8611 113.701C39.5003 114.079 39.0115 114.268 38.3946 114.268C37.7341 114.268 37.2104 114.021 36.8234 113.526C36.4364 113.029 36.2429 112.338 36.2429 111.453ZM38.3859 113.653C38.7991 113.653 39.1192 113.523 39.3461 113.264C39.576 113.003 39.6909 112.626 39.6909 112.134C39.6909 111.712 39.5847 111.38 39.3723 111.139C39.1599 110.897 38.8427 110.777 38.4208 110.777C38.159 110.777 37.9189 110.831 37.7007 110.938C37.4824 111.046 37.3079 111.194 37.1769 111.383C37.0489 111.572 36.9849 111.769 36.9849 111.973C36.9849 112.272 37.0431 112.552 37.1595 112.811C37.2759 113.07 37.4403 113.275 37.6527 113.426C37.868 113.577 38.1124 113.653 38.3859 113.653ZM46.3338 114.181H45.4609L43.1345 111.087L42.4668 111.68V114.181H41.7248V107.8H42.4668V110.964L45.3605 107.8H46.2377L43.6714 110.572L46.3338 114.181Z" fill="white"/>
<path d="M33.7377 69.488H33.0306V64.9402C33.0306 64.5619 33.0422 64.204 33.0655 63.8665C33.0044 63.9276 32.936 63.9916 32.8604 64.0585C32.7847 64.1255 32.4385 64.4092 31.8216 64.9096L31.4375 64.4121L33.1266 63.1071H33.7377V69.488ZM40.398 66.2888C40.398 67.3916 40.2234 68.215 39.8742 68.7592C39.528 69.3033 38.9969 69.5753 38.2812 69.5753C37.5945 69.5753 37.0722 69.2975 36.7143 68.7417C36.3564 68.183 36.1774 67.3654 36.1774 66.2888C36.1774 65.1773 36.3506 64.3524 36.6968 63.8141C37.0431 63.2758 37.5712 63.0067 38.2812 63.0067C38.9737 63.0067 39.4989 63.2875 39.8568 63.849C40.2176 64.4106 40.398 65.2239 40.398 66.2888ZM36.9107 66.2888C36.9107 67.217 37.0198 67.8935 37.238 68.3183C37.4563 68.7402 37.804 68.9512 38.2812 68.9512C38.7642 68.9512 39.1133 68.7373 39.3286 68.3096C39.5469 67.879 39.656 67.2054 39.656 66.2888C39.656 65.3723 39.5469 64.7016 39.3286 64.2768C39.1133 63.849 38.7642 63.6352 38.2812 63.6352C37.804 63.6352 37.4563 63.8461 37.238 64.268C37.0198 64.687 36.9107 65.3606 36.9107 66.2888ZM46.3338 69.488H45.4608L43.1345 66.3936L42.4668 66.9871V69.488H41.7248V63.1071H42.4668V66.2714L45.3605 63.1071H46.2377L43.6714 65.8786L46.3338 69.488Z" fill="white"/>
<path d="M40.6642 135.061H39.7171V136.528H39.0231V135.061H35.9199V134.428L38.9489 130.112H39.7171V134.402H40.6642V135.061ZM39.0231 134.402V132.281C39.0231 131.865 39.0377 131.395 39.0668 130.871H39.0319C38.8922 131.15 38.7613 131.382 38.6391 131.565L36.6445 134.402H39.0231ZM46.3338 136.528H45.4609L43.1345 133.433L42.4668 134.027V136.528H41.7248V130.147H42.4668V133.311L45.3605 130.147H46.2377L43.6714 132.918L46.3338 136.528Z" fill="white"/>
</g>
<path d="M127.679 129.315C127.679 127.834 128.88 126.634 130.361 126.634V126.634C131.842 126.634 133.043 127.834 133.043 129.315V181.159H127.679V129.315Z" fill="#8476AA"/>
<path d="M135 144.5C135 143.119 136.119 142 137.5 142V142C138.881 142 140 143.119 140 144.5V181H135V144.5Z" fill="#99EFD0"/>
<path d="M95.5005 114.12C95.5005 112.639 96.701 111.438 98.182 111.438V111.438C99.663 111.438 100.864 112.639 100.864 114.12V181.159H95.5005V114.12Z" fill="#8476AA"/>
<path d="M103 134.5C103 133.119 104.119 132 105.5 132V132C106.881 132 108 133.119 108 134.5V181H103V134.5Z" fill="#99EFD0"/>
<path d="M192.037 76.5775C192.037 75.0965 193.238 73.8959 194.719 73.8959V73.8959C196.2 73.8959 197.401 75.0965 197.401 76.5775V181.159H192.037V76.5775Z" fill="#8476AA"/>
<path d="M199 107.5C199 106.119 200.119 105 201.5 105V105C202.881 105 204 106.119 204 107.5V181H199V107.5Z" fill="#99EFD0"/>
<path d="M63.3215 149.874C63.3215 148.393 64.5221 147.193 66.0031 147.193V147.193C67.4841 147.193 68.6846 148.393 68.6846 149.874V181.159H63.3215V149.874Z" fill="#8476AA"/>
<path d="M70 160C70 158.343 71.3431 157 73 157V157C74.6569 157 76 158.343 76 160V181H70V160Z" fill="#99EFD0"/>
<path d="M159.858 88.1977C159.858 86.7167 161.059 85.5161 162.54 85.5161V85.5161C164.021 85.5161 165.222 86.7167 165.222 88.1977V181.159H159.858V88.1977Z" fill="#8476AA"/>
<path d="M167 115.5C167 114.119 168.119 113 169.5 113V113C170.881 113 172 114.119 172 115.5V181H167V115.5Z" fill="#99EFD0"/>
</g>
<defs>
<filter id="filter0_d_2_554" x="0.326653" y="0.599365" width="240.404" height="233.253" filterUnits="userSpaceOnUse" color-interpolation-filters="sRGB">
<feFlood flood-opacity="0" result="BackgroundImageFix"/>
<feColorMatrix in="SourceAlpha" type="matrix" values="0 0 0 0 0 0 0 0 0 0 0 0 0 0 0 0 0 0 127 0" result="hardAlpha"/>
<feOffset dy="4"/>
<feGaussianBlur stdDeviation="2"/>
<feComposite in2="hardAlpha" operator="out"/>
<feColorMatrix type="matrix" values="0 0 0 0 0 0 0 0 0 0 0 0 0 0 0 0 0 0 0.25 0"/>
<feBlend mode="normal" in2="BackgroundImageFix" result="effect1_dropShadow_2_554"/>
<feBlend mode="normal" in="SourceGraphic" in2="effect1_dropShadow_2_554" result="shape"/>
</filter>
<filter id="filter1_d_2_554" x="-56.4559" y="-38.7305" width="339.667" height="332.516" filterUnits="userSpaceOnUse" color-interpolation-filters="sRGB">
<feFlood flood-opacity="0" result="BackgroundImageFix"/>
<feColorMatrix in="SourceAlpha" type="matrix" values="0 0 0 0 0 0 0 0 0 0 0 0 0 0 0 0 0 0 127 0" result="hardAlpha"/>
<feOffset dx="-7.15089" dy="14.3018"/>
<feGaussianBlur stdDeviation="26.8158"/>
<feColorMatrix type="matrix" values="0 0 0 0 0.322856 0 0 0 0 0.446289 0 0 0 0 0.545035 0 0 0 0.24 0"/>
<feBlend mode="normal" in2="BackgroundImageFix" result="effect1_dropShadow_2_554"/>
<feBlend mode="normal" in="SourceGraphic" in2="effect1_dropShadow_2_554" result="shape"/>
</filter>
<clipPath id="clip0_2_554">
<rect width="232.404" height="225.253" fill="white" transform="translate(4.32665 0.599365)"/>
</clipPath>
<clipPath id="clip1_2_554">
<rect width="146.593" height="12.5141" fill="white" transform="translate(57.0645 184.735)"/>
</clipPath>
<clipPath id="clip2_2_554">
<rect width="16.0895" height="124.247" fill="white" transform="translate(30.2486 60.488)"/>
</clipPath>
</defs>
</svg>
